<svg xmlns="http://www.w3.org/2000/svg" height="48" viewBox="0 -960 960 960" width="48"><path d="m792.935-109.673-264.37-263.826q-28.956 24.76-68.633 37.934-39.676 13.174-84.166 13.174-110.717 0-187.492-76.803-76.775-76.803-76.775-185.283 0-108.48 76.53-185.306 76.531-76.826 185.783-76.826 109.253 0 185.579 76.833 76.327 76.832 76.327 185.505 0 43.401-13.152 82.304-13.153 38.902-38.957 73.102l265.392 263.126-56.066 56.066ZM374.808-399.109q77.159 0 130.675-54.091 53.516-54.092 53.516-131.359 0-77.267-53.599-131.299-53.599-54.033-130.842-54.033-78.076 0-132.208 54.091-54.132 54.092-54.132 131.359 0 77.267 54.09 131.299 54.091 54.033 132.5 54.033Z"/></svg>